<svg xmlns="http://www.w3.org/2000/svg" viewBox="0 0 24 24">
    <path fill="currentColor" d="M12 18q.65 0 1.07-.42.43-.43.43-1.08 0-.65-.42-1.07Q12.64 15 12 15q-.65 0-1.07.42-.43.43-.43 1.08 0 .65.42 1.07.43.43 1.08.43Zm0-4.5q.65 0 1.07-.42.43-.43.43-1.08 0-.65-.42-1.07-.43-.43-1.08-.43-.65 0-1.07.42-.43.43-.43 1.08 0 .65.42 1.07.43.43 1.08.43ZM12 9q.65 0 1.07-.42.43-.43.43-1.08 0-.65-.42-1.08Q12.64 6 12 6q-.65 0-1.07.42-.43.43-.43 1.08 0 .65.42 1.07Q11.36 9 12 9ZM9 21q-.82 0-1.41-.59T7 19v-.15q-1.13-.3-1.94-1.18-.81-.87-1.01-2.07-.05-.25.11-.42.17-.18.44-.18H7v-1.15q-1.13-.3-1.94-1.18-.81-.87-1.01-2.07-.05-.25.11-.42.17-.18.44-.18H7V8.85q-1.13-.3-1.94-1.18-.81-.87-1.01-2.07-.05-.25.11-.42Q4.33 5 4.6 5H7q0-.82.59-1.41T9 3h6q.82 0 1.41.59Q17 4.17 17 5h2.4q.28 0 .44.17.16.18.11.43-.2 1.2-1.01 2.08-.82.87-1.94 1.17V10h2.4q.28 0 .44.17.16.18.11.43-.2 1.2-1.01 2.08-.82.87-1.94 1.17V15h2.4q.28 0 .44.17.16.18.11.43-.2 1.2-1.01 2.08-.82.87-1.94 1.17V19q0 .82-.59 1.41T15 21Z" />
</svg>
  